<svg width="50" height="40" viewBox="0 0 50 40" fill="none" xmlns="http://www.w3.org/2000/svg">
<path fill-rule="evenodd" clip-rule="evenodd" d="M15.7408 0.25C15.7408 0.111929 15.6288 0 15.4908 0C15.3527 0 15.2408 0.111929 15.2408 0.25V2.65909C15.2408 2.79716 15.3527 2.90909 15.4908 2.90909C15.6288 2.90909 15.7408 2.79716 15.7408 2.65909V0.25ZM25.4848 10.6667C25.4848 13.88 22.88 16.4848 19.6667 16.4848C16.4534 16.4848 13.8485 13.88 13.8485 10.6667C13.8485 7.45337 16.4534 4.84848 19.6667 4.84848C22.88 4.84848 25.4848 7.45337 25.4848 10.6667ZM23.5456 10.6675C23.5456 12.8097 21.809 14.5463 19.6668 14.5463C17.5246 14.5463 15.788 12.8097 15.788 10.6675C15.788 8.5253 17.5246 6.78871 19.6668 6.78871C21.809 6.78871 23.5456 8.5253 23.5456 10.6675ZM25.4848 26.1818C25.4848 29.3951 22.88 32 19.6667 32C16.4534 32 13.8485 29.3951 13.8485 26.1818C13.8485 22.9685 16.4534 20.3636 19.6667 20.3636C22.88 20.3636 25.4848 22.9685 25.4848 26.1818ZM41 26.1818C41 29.3951 38.3951 32 35.1818 32C31.9685 32 29.3636 29.3951 29.3636 26.1818C29.3636 22.9685 31.9685 20.3636 35.1818 20.3636C38.3951 20.3636 41 22.9685 41 26.1818ZM41 10.6667C41 13.88 38.3951 16.4848 35.1818 16.4848C31.9685 16.4848 29.3636 13.88 29.3636 10.6667C29.3636 7.45337 31.9685 4.84848 35.1818 4.84848C38.3951 4.84848 41 7.45337 41 10.6667ZM11.3936 2.48042C11.4913 2.38279 11.6496 2.38279 11.7472 2.48042L13.4507 4.1839C13.5483 4.28154 13.5483 4.43983 13.4507 4.53746C13.353 4.63509 13.1947 4.63509 13.0971 4.53746L11.3936 2.83397C11.296 2.73634 11.296 2.57805 11.3936 2.48042ZM9.25 6.94318C9.11193 6.94318 9 7.05511 9 7.19318C9 7.33125 9.11193 7.44318 9.25 7.44318H11.6591C11.7972 7.44318 11.9091 7.33125 11.9091 7.19318C11.9091 7.05511 11.7972 6.94318 11.6591 6.94318H9.25Z" fill="#003668"/>
<line x1="0.5" y1="39.5" x2="49.5" y2="39.5" stroke="#D8D8D8" stroke-linecap="round"/>
</svg>
