<svg width="50" height="42" viewBox="0 0 50 42" fill="none" xmlns="http://www.w3.org/2000/svg">
<line x1="0.5" y1="40.5039" x2="49.5" y2="40.5039" stroke="#D2D2D2" stroke-linecap="round"/>
<path fill-rule="evenodd" clip-rule="evenodd" d="M45 0.998047L32.7939 8.79807L39.085 10.3328L25.3553 31.7681C25.1721 32.054 24.7438 32.0827 24.5173 31.8C21.4603 27.9828 18.7992 25.5661 15.8384 24.0312C12.8772 22.4962 9.66047 21.8666 5.53862 21.5474C5.2633 21.5261 5.02283 21.732 5.00152 22.0074C4.9802 22.2827 5.18611 22.5231 5.46143 22.5445C9.52804 22.8593 12.5903 23.4738 15.3782 24.919C18.1665 26.3645 20.7247 28.664 23.7368 32.4251C24.3767 33.2242 25.6329 33.1887 26.1974 32.3075L39.9262 10.8736L43.9031 15.5573L45 0.998047Z" fill="#003668"/>
<path d="M32.7939 8.79807L32.5247 8.37675L31.5391 9.0066L32.6754 9.28382L32.7939 8.79807ZM45 0.998047L45.4986 1.03561L45.5738 0.0380349L44.7308 0.576725L45 0.998047ZM39.085 10.3328L39.506 10.6025L39.8836 10.013L39.2035 9.84707L39.085 10.3328ZM25.3553 31.7681L25.7763 32.0378L25.3553 31.7681ZM24.5173 31.8L24.127 32.1126L24.5173 31.8ZM15.8384 24.0312L16.0685 23.5873L15.8384 24.0312ZM5.53862 21.5474L5.57721 21.0489H5.57721L5.53862 21.5474ZM5.46143 22.5445L5.50002 22.0459H5.50002L5.46143 22.5445ZM15.3782 24.919L15.6083 24.4751H15.6083L15.3782 24.919ZM23.7368 32.4251L23.3465 32.7377H23.3465L23.7368 32.4251ZM26.1974 32.3075L25.7763 32.0378L25.7763 32.0378L26.1974 32.3075ZM39.9262 10.8736L40.3073 10.55L39.8697 10.0347L39.5051 10.6039L39.9262 10.8736ZM43.9031 15.5573L43.5219 15.8809L44.3101 16.8093L44.4016 15.5949L43.9031 15.5573ZM33.0632 9.21939L45.2693 1.41937L44.7308 0.576725L32.5247 8.37675L33.0632 9.21939ZM39.2035 9.84707L32.9124 8.31232L32.6754 9.28382L38.9665 10.8186L39.2035 9.84707ZM25.7763 32.0378L39.506 10.6025L38.664 10.0631L24.9342 31.4984L25.7763 32.0378ZM24.127 32.1126C24.5638 32.6579 25.4056 32.6166 25.7763 32.0378L24.9342 31.4984C24.9342 31.4984 24.9344 31.4983 24.9346 31.4979C24.9349 31.4976 24.9352 31.4973 24.9355 31.497C24.9362 31.4963 24.9367 31.4961 24.9366 31.4961C24.9362 31.4964 24.9334 31.4977 24.9286 31.4979C24.924 31.4981 24.9202 31.4972 24.9177 31.4961C24.9165 31.4956 24.9152 31.4949 24.9139 31.4939C24.9126 31.4929 24.9104 31.491 24.9076 31.4874L24.127 32.1126ZM15.6083 24.4751C18.4829 25.9653 21.0925 28.3234 24.127 32.1126L24.9076 31.4874C21.8281 27.6422 19.1156 25.1669 16.0685 23.5873L15.6083 24.4751ZM5.50002 22.0459C9.59424 22.3629 12.7337 22.985 15.6083 24.4751L16.0685 23.5873C13.0207 22.0074 9.72669 21.3702 5.57721 21.0489L5.50002 22.0459ZM5.50002 22.0459L5.50003 22.0459L5.57721 21.0489C5.02657 21.0063 4.54564 21.4181 4.50301 21.9688L5.50002 22.0459ZM5.50002 22.0459L5.50002 22.0459L4.50301 21.9688C4.46038 22.5194 4.8722 23.0003 5.42284 23.043L5.50002 22.0459ZM15.6083 24.4751C12.7337 22.985 9.59424 22.3629 5.50002 22.0459L5.42284 23.043C9.46185 23.3557 12.4468 23.9626 15.1481 25.3629L15.6083 24.4751ZM24.127 32.1126C21.0925 28.3234 18.4829 25.9653 15.6083 24.4751L15.1481 25.3629C17.8501 26.7636 20.3569 29.0046 23.3465 32.7377L24.127 32.1126ZM25.7763 32.0378C25.4036 32.6197 24.5615 32.655 24.127 32.1126L23.3465 32.7377C24.192 33.7934 25.8623 33.7576 26.6184 32.5772L25.7763 32.0378ZM39.5051 10.6039L25.7763 32.0378L26.6184 32.5772L40.3472 11.1433L39.5051 10.6039ZM44.2842 15.2337L40.3073 10.55L39.545 11.1972L43.5219 15.8809L44.2842 15.2337ZM44.5014 0.960481L43.4045 15.5197L44.4016 15.5949L45.4986 1.03561L44.5014 0.960481Z" fill="#003668"/>
</svg>
